<?xml version="1.0" encoding="utf-8"?>
<!-- Generator: Adobe Illustrator 19.0.0, SVG Export Plug-In . SVG Version: 6.00 Build 0)  -->
<svg version="1.1" id="layer" xmlns="http://www.w3.org/2000/svg" xmlns:xlink="http://www.w3.org/1999/xlink" x="0px" y="0px"
	 viewBox="-153 -46 652 652" style="enable-background:new -153 -46 652 652;" xml:space="preserve">
<style type="text/css">
	.st0{fill:#E52420;}
</style>
<path class="st0" d="M-83.7,350c-5.7,3.7-11.8,5.6-18.5,5.6c-17.8,0-29.2-11.6-29.2-30.1c0-19.1,12.2-31.8,29.5-31.8
	c6.4,0,11.8,1.7,17.1,5.4l1.5-4.3h8v23.5h-8.4c-1.2-10.8-6-15.9-15-15.9s-13.8,7.2-13.8,21.2c0,15.8,3.7,23.4,13.4,23.4
	c7.1,0,8.9-2.2,8.9-7.8V335c0-3.7-0.3-4.5-4.2-4.5h-4.3v-7.7h31.9v7.7h-3.1c-3,0-4,0.9-4,3.9v20h-7.8C-81.6,354.4-83.7,350-83.7,350
	z M-11.5,346.1h3.1v7.7h-33.4v-7.7h3.2c4.8,0,5.3-0.8,5.3-5.1v-33c0-4.3-0.5-5-5.3-5h-3.2v-7.7h38.4c14.1,0,21.1,4.7,21.1,14.5
	c0,6.8-4.6,11.5-13.4,13.2c7.1,1.2,10.4,4.4,10.4,11.8v5.7c0,4.4,0.4,6.3,2.5,6.3c2.4,0,3-3,3-9.1h5.8c0,0.8,0.1,1.6,0.1,2.3
	c0,10.7-4.3,15.7-13.6,15.7c-9.9,0-14.2-4.8-14.2-15V335c0-6.4-1.3-7.8-8-7.8h-7.1v13.9C-16.9,345.4-16.3,346.1-11.5,346.1
	 M-10.8,319.5c8.1,0,11.4-1.5,11.4-7.9c0-6.5-3.2-8.5-10.7-8.5h-6.9v16.5C-16.9,319.5-10.8,319.5-10.8,319.5z M50.7,346.1H54
	c4.8,0,5.3-0.8,5.3-5.1v-33c0-4.3-0.5-5-5.3-5h-3.2v-7.7h57.7v22.3h-7.7c-0.8-5.7-1.7-9.5-4.3-11.9c-2.9-2.7-7.1-2.8-13.3-2.8h-7.6
	v16.6h1.5c6.5,0,8.1-1.9,8.1-9.2h7.3v26.6h-7.3c-0.2-8.3-1.5-9.8-8.1-9.8h-1.5v18.8h7.8c12.3,0,16-2.8,17.3-16.5h7.7v24.1H50.7
	C50.7,353.8,50.7,346.1,50.7,346.1z M141.6,303h-3v-7.7h28l22.4,40.8v-28c0-4.3-0.6-5.1-5.4-5.1h-3.3v-7.7h26.6v7.7h-2.7
	c-4.8,0-5.4,0.8-5.4,5.1v45.7h-17.9l-24-43.5v30.7c0,4.3,0.6,5.1,5.4,5.1h3.3v7.7h-27v-7.7h3c4.8,0,5.4-0.8,5.4-5.1v-33
	C147,303.8,146.4,303,141.6,303 M234.4,354.6v-23h7.8c1.4,9.5,8.6,15.4,18.1,15.4c6.7,0,10.5-2.8,10.5-7c0-5.7-5.1-6.2-13.1-8.1
	c-8-1.9-14.2-3.4-18.5-6.8c-3.8-3-5.9-7.3-5.9-12.5c0-11.7,8.5-18.6,23.8-18.6c7.3,0,13.2,1.5,17.6,4.9l1.7-4.1h7.2v21.3h-8
	c-1-8.7-7.6-13.8-17.2-13.8c-6.1,0-9.5,2.8-9.5,6.8c0,5.7,6.4,5.5,18.5,8.4c13.1,3.2,19.3,9,19.3,19.1c0,11.4-9.1,19-24.2,19
	c-7.4,0-14.5-2.2-18.8-5.2l-2.4,4.3C241.5,354.6,234.4,354.6,234.4,354.6z M343.9,293.6c20.6,0,32.8,11.8,32.8,31
	c0,19.2-12.2,30.9-32.8,30.9c-20.6,0-32.8-11.8-32.8-30.9C311.1,305.5,323.3,293.6,343.9,293.6 M343.9,347.5
	c9.8,0,13.8-7.4,13.8-22.9c0-15.5-4-22.9-13.8-22.9c-9.8,0-13.8,7.4-13.8,22.9C330,340.1,334,347.5,343.9,347.5 M403.4,303h-3v-7.7
	h28l22.4,40.8v-28c0-4.3-0.6-5.1-5.4-5.1H442v-7.7h26.6v7.7h-2.7c-4.8,0-5.4,0.8-5.4,5.1v45.7h-17.9l-23.9-43.5v30.7
	c0,4.3,0.6,5.1,5.4,5.1h3.3v7.7h-27v-7.7h3c4.8,0,5.4-0.8,5.4-5.1v-33C408.8,303.8,408.2,303,403.4,303 M43.7,402.3H31.1v5h11.5v4.2
	H31.1v6.1h13.1v4.2H26.3v-23.6h17.4V402.3z M66.9,398.1h4.6v23.6h-4.9l-9.6-16.8h-0.1v16.8h-4.6v-23.6h5.2l9.4,16.5h0.1V398.1z
	 M91.6,409h9.9v12.7h-3.3l-0.5-3c-1.2,1.5-3.1,3.6-7.4,3.6c-5.7,0-10.9-4.1-10.9-12.4c0-6.4,3.6-12.5,11.5-12.5H91
	c7.2,0,10.1,4.7,10.4,8h-4.9c0-0.9-1.7-3.9-5.2-3.9c-3.5,0-6.8,2.4-6.8,8.5c0,6.5,3.5,8.1,6.9,8.1c1.1,0,4.7-0.4,5.7-5.2h-5.5
	L91.6,409L91.6,409z M115.3,417.5h11.8v4.3h-16.7v-23.6h4.9L115.3,417.5z M138.1,421.8h-5.2l8.4-23.6h5.7l8.3,23.6H150l-1.5-4.9
	h-8.7L138.1,421.8z M141.1,412.8h6l-2.9-9.3h-0.1L141.1,412.8z M177.2,398.1h4.6v23.6h-4.9l-9.6-16.8h-0.1v16.8h-4.6v-23.6h5.2
	l9.4,16.5h0.1V398.1z M190.9,398.1h10.4c8,0,9.6,6.8,9.6,11.3c0,5.1-2,12.4-9.8,12.4h-10.2L190.9,398.1
	C190.9,398.1,190.9,398.1,190.9,398.1z M195.7,417.7h4.8c4,0,5.4-4,5.4-7.9c0-7-3.3-7.5-5.4-7.5h-4.8V417.7z M232.1,402.5h0.7
	c4.4,0,5.6-2.3,5.7-4h3.8v23.4h-4.6v-16.1h-5.6L232.1,402.5C232.1,402.5,232.1,402.5,232.1,402.5z M257.6,422.4
	c-6,0-8.1-3.9-8.1-7.1c0-1.2,0-4.3,3.6-5.9c-1.9-0.9-2.8-2.4-2.8-4.6c0-4,3.2-6.4,7.3-6.4c4.8,0,7.4,2.9,7.4,6.1
	c0,2-0.8,3.7-2.7,4.7c2.2,1.1,3.5,2.6,3.5,5.6C265.7,417.8,263.8,422.4,257.6,422.4 M257.5,411.4c-1.7,0-3.3,1.1-3.3,3.6
	c0,2.2,1.3,3.7,3.4,3.7c2.4,0,3.3-2.1,3.3-3.7C260.9,413.4,260.1,411.4,257.5,411.4 M260.5,405c0-1.8-1.2-2.9-2.7-2.9
	c-2.1,0-3.2,1.2-3.2,2.9c0,1.4,1,2.9,3,2.9C259.4,407.9,260.5,406.7,260.5,405 M283.1,404.3c-0.1-1.3-1-2.2-2.7-2.2
	c-3,0-3.7,3.4-3.8,6.4l0.1,0.1c0.6-0.9,1.8-1.9,4.4-1.9c4.8,0,7.1,3.7,7.1,7.2c0,5.1-3.1,8.5-7.6,8.5c-7.1,0-8.5-5.9-8.5-11.8
	c0-4.4,0.6-12.2,8.7-12.2c0.9,0,3.6,0.4,4.8,1.5c1.3,1.2,1.7,1.9,2.2,4.4C287.7,404.3,283.1,404.3,283.1,404.3z M280.2,410.4
	c-1.7,0-3.5,1.1-3.5,4c0,2.5,1.4,4.3,3.6,4.3c1.7,0,3.2-1.3,3.2-4.4C283.5,411.3,281.6,410.4,280.2,410.4 M305.7,404.3
	c-0.1-1.3-1-2.2-2.7-2.2c-3,0-3.7,3.4-3.9,6.4l0.1,0.1c0.6-0.9,1.8-1.9,4.4-1.9c4.8,0,7.1,3.7,7.1,7.2c0,5.1-3.1,8.5-7.6,8.5
	c-7.1,0-8.4-5.9-8.4-11.8c0-4.4,0.6-12.2,8.7-12.2c0.9,0,3.6,0.4,4.8,1.5c1.3,1.2,1.7,1.9,2.2,4.4
	C310.2,404.3,305.7,404.3,305.7,404.3z M302.7,410.4c-1.7,0-3.5,1.1-3.5,4c0,2.5,1.5,4.3,3.7,4.3c1.7,0,3.2-1.3,3.2-4.4
	C306.1,411.3,304.2,410.4,302.7,410.4 M221.3,205c21.1-3.7,4.7-23.6,1.7-32.9c-3-9.4-1.4-35.1-20.7-25.7c-2.2,1-4.2,2.5-5.9,4.2
	c1.1-1.9,1.8-4.2,2.2-6.9c3-21.2-21-11.8-30.8-11.7h0c-9.8,0-33.8-9.5-30.8,11.7c0.4,2.7,1.1,5,2.2,6.9c-1.7-1.8-3.7-3.2-5.9-4.2
	c-19.3-9.4-17.7,16.3-20.7,25.7v0c-3.1,9.3-19.5,29.2,1.6,32.9c2.7,0.5,5.1,0.4,7.2,0c-2.2,1.1-4.2,2.5-5.8,4.3
	c-14.9,15.4,10.1,21.9,18,27.6h0c7.9,5.8,21.8,27.5,31.8,8.6c1.3-2.4,2-4.7,2.3-6.9c0.3,2.2,1,4.5,2.3,6.9
	c10.1,18.9,23.9-2.8,31.8-8.6c8-5.7,32.9-12.2,18-27.6c-1.7-1.8-3.7-3.2-5.8-4.3C216.2,205.4,218.6,205.5,221.3,205 M143.6,137
	c2.2-2,10.7-0.7,15.4,0c3.2,0.5,6.2,1,8.8,1h0c2.6,0,5.6-0.5,8.8-1c4.6-0.7,13.2-2.1,15.4,0c3.8,3.8,0.3,7.4,0.1,8l0,0
	c0,0-3,4.5-6.9-1.9c-1.1-2.3-1.4-2.4-5.7-1.4c-4.3,1-7.7,1.7-11.7,1.7h0c-4,0-7.4-0.7-11.7-1.7c-4.3-1-4.5-0.9-5.7,1.4
	c-3.5,5.7-6.3,2.7-6.8,2C141.1,142,142.4,138.1,143.6,137 M117.8,192.1c4.4,5.1,0.6,6.8-0.2,7.1c-3.7,1.3-7-1.2-7.7-2.6
	c-1.2-2.7,2.6-10.4,4.8-14.6c1.5-2.9,2.9-5.6,3.7-8l0,0c0.8-2.4,1.3-5.5,1.8-8.7c0.7-4.6,2.1-13.2,4.7-14.6c4.8-2.4,7.1,2,7.6,2.4
	l0,0c0,0,3.3,4.3-3.9,6c-2.6,0.4-2.7,0.6-3.1,5c-0.4,4.4-0.8,7.9-2,11.6l0,0l0,0c-1.2,3.8-3,6.8-5.2,10.6
	C116,190,116,190.3,117.8,192.1 M156.2,247c-3,0.3-9.1-5.7-12.4-9c-2.3-2.3-4.4-4.4-6.5-6l0,0c-2.1-1.5-4.8-2.9-7.7-4.4
	c-4.2-2.1-12-6.1-12.4-9c-0.8-5.3,4.1-6.1,4.6-6.5l0,0c0,0,5.1-1.9,4.5,5.6c-0.4,2.6-0.3,2.7,3.8,4.5c4,1.7,7.3,3.2,10.4,5.5l0,0
	c0,0,0,0,0,0c3.2,2.3,5.6,4.9,8.5,8.2c2.9,3.3,3.1,3.4,5.4,2.2c6.2-2.6,6.7,1.5,6.7,2.4C161.1,244.4,157.7,246.8,156.2,247
	 M165,212.9c-12.2,0-20-8.7-20-22.1c0-12.7,7.7-22,20-22c5,0,9.2,1.9,12.5,4.7l1.6-3.5h4.6v16.1h-4.8c-1.7-6-5-12-13.1-12
	c-6.9,0-10.9,7.3-10.9,16.6c0,9.5,3.1,16.7,12,16.7c6.3,0,9.3-3.3,9.3-8v-2.4c0-2.1-1.7-3-3.3-3h-4v-4.6h22.6v4.6h-3.2
	c-2.7,0-3.3,0.6-3.3,3.1v14.4h-4.5l-2.3-3.2C174.5,211.4,169.5,212.9,165,212.9 M218.4,218.6c-0.6,2.9-8.3,6.9-12.4,9
	c-2.9,1.5-5.6,2.9-7.7,4.4l0,0c-2.1,1.5-4.2,3.7-6.5,6c-3.3,3.3-9.5,9.5-12.4,9c-5.3-0.8-4.6-5.8-4.8-6.4h0c0,0-0.2-5.4,6.7-2.5
	c2.3,1.2,2.5,1.1,5.4-2.2c2.9-3.3,5.2-5.9,8.5-8.2l0,0l0,0c3.2-2.4,6.4-3.8,10.5-5.5c4-1.7,4.2-1.9,3.8-4.5
	c-0.6-6.7,3.5-5.9,4.3-5.6C217.4,213.1,218.7,217.1,218.4,218.6 M217.7,192c1.9-1.8,1.8-2.1-0.4-5.8c-2.2-3.8-4-6.8-5.2-10.6
	c0,0,0,0,0,0c0,0,0,0,0,0c-1.3-3.8-1.6-7.3-2-11.6c-0.4-4.4-0.5-4.6-3.1-5c-6.5-1.5-4.5-5.1-4-5.8c2.3-3.2,6.4-3.2,7.8-2.4
	c2.6,1.5,4,10,4.7,14.6c0.5,3.2,1,6.2,1.8,8.7l0,0c0.8,2.4,2.2,5.2,3.7,8c2.1,4.2,6.1,11.9,4.8,14.6c-2.4,4.8-6.9,2.6-7.6,2.6v0
	C218,199.2,212.8,197.7,217.7,192"/>
</svg>
